<?xml version="1.0" encoding="UTF-8" standalone="no"?>
<svg
   xmlns:dc="http://purl.org/dc/elements/1.1/"
   xmlns:cc="http://creativecommons.org/ns#"
   xmlns:rdf="http://www.w3.org/1999/02/22-rdf-syntax-ns#"
   xmlns:svg="http://www.w3.org/2000/svg"
   xmlns="http://www.w3.org/2000/svg"
   xmlns:sodipodi="http://sodipodi.sourceforge.net/DTD/sodipodi-0.dtd"
   xmlns:inkscape="http://www.inkscape.org/namespaces/inkscape"
   version="1.1"
   id="svg2"
   xml:space="preserve"
   width="767.1333"
   height="328.84"
   viewBox="0 0 767.1333 328.84"
   sodipodi:docname="Air_Asia.eps"><metadata
     id="metadata8"><rdf:RDF><cc:Work
         rdf:about=""><dc:format>image/svg+xml</dc:format><dc:type
           rdf:resource="http://purl.org/dc/dcmitype/StillImage" /></cc:Work></rdf:RDF></metadata><defs
     id="defs6" /><sodipodi:namedview
     pagecolor="#ffffff"
     bordercolor="#666666"
     borderopacity="1"
     objecttolerance="10"
     gridtolerance="10"
     guidetolerance="10"
     inkscape:pageopacity="0"
     inkscape:pageshadow="2"
     inkscape:window-width="640"
     inkscape:window-height="480"
     id="namedview4" /><g
     id="g10"
     inkscape:groupmode="layer"
     inkscape:label="ink_ext_XXXXXX"
     transform="matrix(1.3333333,0,0,-1.3333333,0,328.84)"><g
       id="g12"
       transform="scale(0.1)"><path
         d="m 1919.46,1901.25 c -75.29,-14.03 -140.99,-84.16 -146.76,-156.61 -5.76,-72.42 50.59,-119.72 125.9,-105.64 75.26,14.08 140.98,84.18 146.74,156.62 5.76,72.42 -50.61,119.73 -125.88,105.63"
         style="fill:#ee2722;fill-opacity:1;fill-rule:nonzero;stroke:none"
         id="path14" /><path
         d="m 1108.01,1382.65 c -81.52,-16.53 -167.615,-35.44 -256.115,-56.92 152.625,271.96 321.385,544.54 478.695,758.48 -78.29,-191.97 -157,-449.8 -222.58,-701.56 z m 1342.35,196.72 c -31.19,-5.82 -67.28,-12.41 -207.12,-175.97 34.43,63.18 45.44,114.86 3.37,143.2 -44.14,29.8 -120.6,6.72 -163.25,-21.17 -26.4,-17.25 -27.08,-25.79 -31.6,-58.64 -3.64,-21.4 -23.34,-69.41 -37.03,-96.46 l -42.59,-90.61 C 1811.3,999.031 1721.39,922.422 1694.85,890.332 c -27.36,-29.594 -49.9,-47.012 -65.52,-49.922 -11.73,-2.211 -16.83,6.25 -15.61,21.551 1.82,22.937 10.12,54.598 28.78,95.777 30.55,69.742 79.18,172.982 117.41,242.302 20.58,41.5 74.28,138.89 74.28,138.89 50.5,113.03 -45.34,152.2 -101.48,143.9 -16.42,-2.43 -192.77,-22.73 -394.82,-57.27 110.48,461.75 101.21,392.92 215.95,688.77 56.03,144.47 49.76,177.56 2.48,232.13 -47.3,54.55 -38.93,114.86 -92.42,119.71 C 1339,2477.49 906.703,1853.38 558.961,1246.68 394.996,1197.5 230.98,1139.22 79.75,1070.57 -20.7383,1024.93 -1.26563,941.191 7.64063,898.52 20.1797,838.52 85.4336,811.988 136.996,841.121 c 78.43,44.34 168.438,86.211 264.692,125.359 -2.84,-6.429 -4.016,-9.992 -2.875,-9.519 C 266.957,708.73 118.773,362.379 70.4648,208.602 43.4414,122.629 86.4609,45.6992 160.297,12.1016 c 73.84,-33.5821 124.18,1.9101 148.984,117.2384 30.84,143.43 217.93,588.058 407.012,947.07 0.195,0.07 1.125,1.49 2.551,3.86 114.203,36.53 229.336,69.4 338.476,98.31 -66.797,-282.99 -83.781,-400.01 -82.882,-497.31 0.878,-95.758 35.982,-207.399 140.742,-192.231 104.75,15.199 87.56,113.481 99.2,204.793 26.63,208.727 30.72,299.156 80.1,538.158 1.19,0.34 2.63,2.85 4.23,6.86 116.32,27.37 215.49,48.41 284.96,62.49 -9.84,-21.19 -20.98,-44.39 -32.8,-68.92 -45.9,-93.34 -95.41,-208.06 -127.05,-291.17 -29.65,-82.75 -46.36,-148.051 -50.77,-203.469 -9.74,-122.351 42.12,-188.09 133.89,-170.922 68.35,12.813 173.36,105.301 291.44,289.532 -13.24,-43.809 -21.45,-79.762 -22.31,-102.352 -3.62,-95.418 43.58,-173.957 197.68,-69.719 15.41,10.43 17.47,25.879 17.93,56.11 8.23,103.191 49.81,239.832 141.68,379.42 72.05,107.63 122.78,168.7 188.46,197.16 116.66,50.51 190.84,34.6 256.2,113.57 63.68,76.96 -69.06,159.79 -127.66,148.79"
         style="fill:#ee2722;fill-opacity:1;fill-rule:nonzero;stroke:none"
         id="path16" /><path
         d="m 5190.72,1106.63 c -58.2,-77.19 -112.73,-125.81 -144.21,-130.189 -19.67,-2.73 -30.78,16.278 -27.13,44.839 8.96,70.33 122.74,282.52 207.7,387.72 57.69,73.4 118.37,124.8 145.91,128.59 21.65,2.99 29.83,-8.96 26.17,-37.5 -8.02,-62.75 -129.89,-292.88 -208.44,-393.46 z m 472.01,166.43 c -33.47,-54.62 -63.43,-100.83 -106.32,-147.65 -38.91,-42.45 -69.82,-59.24 -86.66,-53.13 -44.34,16.1 -19.04,79.68 26.66,173.13 21.44,43.84 51.49,100.56 78.99,149.19 38.98,63.33 47.07,81.28 49.98,104.09 4.13,32.34 -16.32,53.83 -76.86,79.04 -38.46,17.11 -41.87,20.37 -57.46,64.92 -22.01,54.87 -68.79,82.03 -125.88,74.12 -86.89,-12.03 -222.91,-117.38 -343.32,-266.21 -44.13,-49.77 -193.94,-251.69 -212.48,-277.27 l -23.33,-31.24 c -65.52,-89.44 -83.69,-110.61 -112.93,-142.691 -28.74,-28.25 -52.08,-44.589 -67.83,-46.757 -11.81,-1.653 -16.52,7.07 -14.56,22.277 2.92,22.82 12.71,54.061 33.34,94.321 33.81,68.2 87.28,169.02 128.76,236.4 22.55,40.5 61.84,113.81 64.79,121.7 l 22.33,38.6 c 56.6,101.77 -30.04,150.93 -95.47,145.6 -25.74,-2.11 -68.38,-20.68 -89.75,-36.72 -16.95,-11.68 -19.39,-15.76 -24.29,-38.85 -5.61,-28.81 -44.41,-113.3 -84.87,-188.02 -50.28,-91.04 -105.22,-203.26 -140.74,-284.8 -33.58,-81.251 -53.39,-145.68 -60.42,-200.829 -15.56,-121.73 32.8,-189.949 125.29,-177.121 68.9,9.512 142.69,75.578 233.31,179.692 28.93,33.339 61.35,78.628 92.15,126.339 -16.54,-135.66 50.9,-229.179 166.39,-213.179 76.76,10.636 141.6,67.258 224.86,159.16 11.08,10.879 15.47,15.207 21.39,16.027 5.88,0.813 11.06,-4.07 11.58,-15.238 l 4.2,-12.449 c 11.43,-61.953 57.97,-91.024 124.9,-81.742 82.64,11.429 173.47,72.992 272.7,198.83 80.26,98.93 112.26,171.41 129.06,216.26 19.3,51.74 -53.14,70.3 -87.51,14.2"
         style="fill:#ee2722;fill-opacity:1;fill-rule:nonzero;stroke:none"
         id="path18" /><path
         d="m 4873.07,1741.52 c 75.29,14.06 141,84.16 146.74,156.58 5.76,72.44 -50.57,119.75 -125.86,105.67 -75.27,-14.05 -140.98,-84.2 -146.74,-156.61 -5.76,-72.44 50.6,-119.73 125.86,-105.64"
         style="fill:#ee2722;fill-opacity:1;fill-rule:nonzero;stroke:none"
         id="path20" /><path
         d="m 3729.59,2084.21 c -78.12,-191.6 -156.68,-448.79 -222.18,-700.08 -80.09,-15.59 -165.74,-33.77 -254.55,-54.93 152.11,270.81 320.1,542 476.73,755.01 z m 39.24,-654.49 c -10.46,-1.61 -21.21,-3.3 -32.15,-5.04 110.71,462.7 101.35,393.62 216.17,689.65 56.02,144.47 49.75,177.56 2.48,232.13 -47.3,54.55 -38.94,114.86 -92.41,119.71 -124.63,11.3 -555.27,-610 -902.62,-1215.43 -163.32,-49.13 -327.41,-108.39 -477.82,-179.51 -94.1,-44.49 -74.9,-128.3 -66.07,-170.992 12.42,-60 74.1,-87.168 122.33,-58.629 77.68,46.02 167.64,89.11 263.89,129.11 -4.23,-9.129 -264.19,-524.61 -333.15,-762.117 -25.13,-86.551 15.98,-162.9028 89.82,-196.5004 73.84,-33.5821 124.18,1.9101 148.99,117.2384 30.84,143.43 278.06,718.449 413.27,957.22 114.17,36.64 228.52,69.13 335.14,97.1 -0.22,-2.09 -82.85,-333.371 -83.26,-502.39 -0.23,-95.758 35.98,-207.399 140.73,-192.231 104.77,15.199 87.59,113.481 99.21,204.793 26.64,208.727 30.73,299.156 80.11,538.158 1.59,0.45 3.6,4.64 5.85,11.32 27.47,6.32 53.73,12.24 78.2,17.62 130.88,28.81 168.08,27.45 176.95,130.34 5.46,63.17 -140.64,45.41 -185.66,38.45"
         style="fill:#ee2722;fill-opacity:1;fill-rule:nonzero;stroke:none"
         id="path22" /><path
         d="m 3934.81,590.27 c -67.61,-7.239 -215.22,26.289 -239.89,144.562 -8.7,38.289 46.85,141.008 58.54,158.879 19.98,30.578 51.03,12.461 61.55,-3.02 23.22,-34.089 147.65,-145.589 219.71,-73.5 46.23,46.25 -25.5,107.079 -55.53,156.539 -111.02,182.76 38.73,394.56 86.13,441.31 102.32,100.85 174.2,109.88 224.9,111.36 145.71,4.81 196.09,-77.58 185.08,-126.4 -12.05,-53.44 -40.65,-84.89 -60.23,-106 -14.23,-15.35 -55.18,-19.71 -67.94,-0.98 -30.95,45.49 -49.21,106.22 -138.96,69.89 -72.03,-29.18 -76.15,-127.48 -60.68,-175.3 25.19,-76.75 127.24,-134.72 126.38,-245.329 -2.26,-285.91 -252.95,-342.793 -339.06,-352.011"
         style="fill:#ee2722;fill-opacity:1;fill-rule:nonzero;stroke:none"
         id="path24" /></g></g></svg>
