<?xml version="1.0" standalone="no"?>
<!DOCTYPE svg PUBLIC "-//W3C//DTD SVG 20010904//EN"
 "http://www.w3.org/TR/2001/REC-SVG-20010904/DTD/svg10.dtd">
<svg version="1.0" xmlns="http://www.w3.org/2000/svg"
 width="736.000000pt" height="720.000000pt" viewBox="0 0 736.000000 720.000000"
 preserveAspectRatio="xMidYMid meet">
<metadata>
Created by potrace 1.16, written by Peter Selinger 2001-2019
</metadata>
<g transform="translate(0.000000,720.000000) scale(0.100000,-0.100000)"
fill="#000000" stroke="none">
<path d="M6441 6592 c-68 -3 -80 -6 -125 -39 -28 -20 -59 -47 -69 -60 -10 -13
-22 -21 -27 -18 -5 3 -12 0 -17 -7 -4 -7 -32 -31 -60 -53 -29 -21 -53 -43 -53
-48 0 -4 -13 -13 -28 -20 -25 -10 -99 -67 -137 -104 -7 -7 -16 -9 -20 -5 -4 4
-5 2 -3 -4 2 -7 -1 -13 -7 -14 -5 -1 -29 -20 -53 -41 -23 -22 -54 -44 -68 -49
-14 -6 -23 -14 -20 -19 3 -5 -1 -14 -9 -21 -8 -7 -15 -10 -15 -6 0 3 -9 -3
-20 -14 -12 -12 -25 -18 -31 -15 -5 4 -8 1 -7 -6 2 -8 -10 -20 -27 -29 -42
-21 -97 -60 -119 -85 -10 -11 -23 -19 -28 -17 -5 1 -7 -1 -5 -5 6 -10 -19 -34
-26 -26 -3 2 -13 -9 -22 -26 -10 -20 -20 -29 -28 -25 -7 4 -9 4 -5 -1 4 -4 -3
-16 -15 -27 -37 -33 203 131 287 196 43 34 117 94 165 134 124 107 127 108
151 87 18 -16 12 -22 -163 -163 -183 -147 -354 -290 -437 -366 -112 -102 -302
-268 -380 -330 -107 -86 -333 -236 -469 -311 -134 -73 -146 -78 -161 -59 -7 7
-9 14 -4 14 4 0 -1 6 -11 14 -21 15 -40 12 -30 -5 4 -5 0 -9 -8 -9 -8 0 -22
-11 -31 -25 -9 -14 -23 -25 -30 -25 -8 0 -21 -12 -30 -26 -10 -14 -23 -23 -29
-21 -6 2 -21 -5 -32 -16 -11 -10 -36 -31 -55 -45 -19 -15 -37 -29 -40 -32 -3
-3 -12 -9 -21 -15 -50 -31 -184 -139 -181 -146 1 -5 -5 -9 -13 -9 -9 0 -37
-21 -62 -47 -26 -27 -43 -41 -38 -33 4 8 -3 5 -17 -8 -13 -12 -28 -19 -33 -15
-4 5 -5 3 -2 -4 4 -6 2 -13 -5 -15 -6 -2 -8 -10 -4 -16 5 -9 18 -6 47 9 32 16
44 18 55 8 8 -6 14 -15 14 -19 0 -13 -192 -196 -310 -297 -158 -135 -297 -237
-480 -352 -245 -154 -324 -206 -430 -284 -109 -80 -288 -224 -341 -274 l-35
-34 -19 21 c-18 20 -18 21 1 40 10 10 56 47 100 82 101 78 339 273 376 307 15
14 25 28 22 33 -3 4 -1 8 4 8 6 0 13 8 16 17 6 15 5 16 -11 1 -10 -9 -28 -19
-40 -22 -13 -4 -23 -12 -23 -17 0 -5 -9 -9 -20 -9 -11 0 -20 -4 -20 -10 0 -5
-9 -10 -21 -10 -11 0 -18 -4 -15 -9 5 -8 -19 -20 -54 -25 -32 -5 -60 -18 -60
-27 0 -5 -11 -9 -24 -9 -13 0 -26 -7 -30 -15 -3 -9 -18 -15 -34 -15 -33 0 -90
-17 -110 -33 -8 -6 -23 -13 -35 -14 -12 -2 -28 -9 -36 -17 -21 -17 -99 -39
-111 -31 -6 3 -10 1 -10 -5 0 -7 -6 -10 -13 -7 -18 7 -104 -9 -147 -28 -33
-14 -237 -47 -290 -47 -14 0 -30 -4 -35 -8 -6 -5 -45 -10 -87 -12 -42 -2 -74
-6 -71 -10 2 -5 -23 -8 -56 -8 -32 0 -68 -3 -78 -6 -15 -5 -16 -4 -3 5 11 9 4
9 -30 4 -25 -4 -90 -8 -144 -7 -55 0 -89 -3 -75 -7 13 -4 -144 -7 -348 -8
-243 -1 -373 2 -373 9 0 11 -75 13 -132 4 -30 -5 -39 -12 -48 -37 -5 -17 -7
-34 -3 -38 5 -4 51 -10 103 -14 52 -3 138 -11 190 -16 128 -14 152 -16 245
-24 43 -4 91 -12 105 -18 14 -6 34 -11 45 -12 11 -1 45 -7 75 -13 30 -6 90
-14 133 -18 42 -3 77 -10 77 -16 0 -6 6 -8 14 -5 8 3 16 2 18 -3 2 -5 32 -12
68 -16 36 -3 67 -9 70 -14 3 -5 21 -11 40 -14 92 -13 120 -19 120 -26 0 -5 10
-6 22 -2 12 3 19 1 15 -4 -3 -5 2 -10 11 -11 28 -2 154 -41 217 -67 32 -14 63
-22 67 -20 4 3 8 1 8 -4 0 -5 26 -17 57 -27 32 -10 69 -23 83 -30 14 -7 37
-15 53 -19 15 -3 27 -11 27 -17 0 -6 5 -7 10 -4 6 3 10 2 10 -3 0 -6 12 -13
26 -16 15 -4 33 -14 41 -22 8 -8 18 -12 22 -9 5 2 17 -4 28 -15 12 -10 24 -16
27 -13 3 4 6 1 6 -5 0 -7 6 -12 13 -12 6 0 41 -21 77 -46 112 -78 197 -134
205 -134 4 0 16 -11 27 -25 11 -14 24 -25 30 -25 6 0 18 -7 27 -15 22 -21 82
-63 107 -74 11 -5 33 -24 47 -41 15 -17 27 -29 27 -25 0 4 59 -52 131 -124 72
-72 134 -129 139 -126 5 3 15 -3 22 -13 7 -10 36 -33 63 -52 28 -19 56 -40 64
-48 8 -8 27 -19 43 -24 15 -6 28 -14 28 -18 0 -5 13 -11 30 -15 16 -4 30 -10
30 -15 0 -11 88 -62 98 -57 10 7 73 -29 65 -37 -3 -3 0 -7 8 -7 8 -1 19 -2 24
-4 6 -1 16 -3 23 -3 7 -1 11 -6 8 -11 -4 -5 8 -12 26 -16 18 -4 48 -16 67 -26
43 -25 172 -61 264 -74 15 -2 43 -9 62 -15 19 -6 47 -9 63 -6 15 3 53 2 84 -2
36 -6 115 -3 210 5 84 8 174 12 201 9 26 -2 45 -1 42 4 -2 4 13 8 35 8 22 0
45 4 51 8 7 4 50 11 96 15 46 4 89 12 96 17 10 8 31 14 77 25 12 2 28 23 23
29 -2 5 -102 8 -221 8 -146 0 -212 4 -202 10 11 7 7 8 -15 5 -30 -6 -117 5
-190 24 -22 5 -61 11 -87 12 -27 2 -48 7 -48 11 0 5 -6 8 -12 7 -24 -4 -88 13
-83 22 7 10 -42 24 -69 20 -12 -2 -16 1 -10 10 5 9 2 10 -10 6 -11 -4 -31 3
-54 18 -20 14 -43 25 -50 25 -7 0 -20 7 -29 16 -9 8 -22 13 -29 10 -8 -3 -14
-2 -14 2 0 9 -58 40 -85 45 -11 2 -19 8 -18 14 2 7 -7 15 -20 19 -32 10 -144
91 -151 110 -3 8 -10 12 -16 9 -5 -3 -10 0 -10 8 0 7 -14 26 -31 43 -17 16
-36 38 -42 49 -14 26 -17 125 -4 125 6 0 8 3 4 6 -9 9 27 72 69 120 19 23 60
55 89 70 30 15 52 31 48 37 -3 6 -2 7 4 4 5 -3 23 2 39 11 16 10 48 24 72 32
23 7 42 17 42 22 0 4 14 8 30 8 27 0 30 2 20 19 -7 13 -7 51 0 118 5 54 17
220 25 368 18 315 37 492 71 665 37 187 109 439 127 440 42 1 41 13 34 -207
-10 -331 -34 -518 -107 -838 -54 -234 -87 -398 -94 -460 -6 -50 7 -91 22 -69
7 12 45 22 101 29 18 2 38 8 44 14 6 6 21 11 33 11 13 0 26 5 30 11 3 6 14 9
24 6 9 -2 24 0 33 4 8 5 37 11 64 14 26 3 49 9 51 14 2 6 9 8 16 5 10 -4 6 31
-15 133 -75 360 -109 537 -123 641 -24 170 -38 432 -30 569 6 109 9 123 26
129 11 3 21 4 23 2 8 -8 57 -209 85 -348 57 -284 73 -433 85 -800 3 -96 8
-207 11 -247 6 -67 8 -71 28 -66 11 3 35 6 51 7 17 0 33 5 36 9 3 4 57 10 120
13 194 8 202 9 206 20 2 6 -58 134 -133 285 -221 444 -256 523 -324 730 -32
96 -85 295 -106 396 -6 30 34 43 50 17 49 -80 151 -276 211 -404 90 -194 131
-301 195 -510 28 -91 77 -243 109 -339 l58 -173 274 1 c151 1 277 5 281 9 7 7
-15 37 -176 232 -80 97 -113 134 -212 246 -360 400 -501 591 -655 881 -52 99
-53 103 -36 120 18 17 21 15 93 -62 110 -117 261 -289 333 -378 54 -66 205
-285 270 -392 139 -226 247 -382 373 -538 43 -53 76 -102 73 -107 -3 -6 0 -10
7 -11 7 0 24 -3 38 -5 51 -9 225 -5 228 4 2 6 -17 24 -42 41 -44 31 -74 62
-45 47 8 -4 3 1 -10 11 -41 32 -114 103 -105 103 5 0 4 4 -2 8 -33 22 -73 97
-80 148 -9 77 3 161 28 184 11 10 17 23 14 28 -3 5 3 21 14 35 24 31 25 33 3
40 -17 4 -322 203 -525 342 -139 95 -324 253 -467 398 -68 69 -128 132 -133
140 -9 17 -1 47 14 47 13 0 186 -106 330 -201 223 -150 368 -268 633 -518 186
-175 204 -191 198 -175 -4 10 -2 15 3 11 6 -3 21 15 35 41 13 26 33 59 43 74
11 15 17 30 14 33 -3 4 5 18 18 32 13 14 24 34 24 44 0 11 5 19 11 19 5 0 7 5
4 10 -3 6 -2 10 3 10 5 0 15 15 23 33 7 17 17 35 23 39 6 4 8 10 4 13 -3 4
-138 51 -300 105 -400 134 -435 147 -642 248 -202 98 -396 218 -396 244 0 9 5
20 10 23 14 9 322 -85 500 -151 202 -76 246 -97 665 -316 162 -85 212 -107
200 -89 -3 5 2 12 11 15 9 3 14 13 10 21 -3 8 3 20 12 27 9 7 24 27 32 43 8
17 18 32 22 35 3 3 25 41 48 85 23 44 51 95 62 113 39 63 68 57 -432 87 -434
25 -586 46 -863 117 -202 52 -252 70 -252 94 0 17 11 19 115 22 172 5 500 -22
705 -59 33 -6 166 -35 295 -64 129 -29 282 -61 340 -71 58 -10 107 -21 110
-24 3 -4 12 -9 19 -12 14 -4 22 8 75 122 25 54 54 103 66 110 6 4 12 15 14 24
1 10 7 21 12 24 6 4 16 22 23 40 8 17 17 32 21 32 8 0 60 103 60 120 0 6 4 9
8 6 4 -2 9 6 10 20 1 13 -1 24 -4 24 -31 0 -543 -92 -769 -139 -352 -72 -464
-88 -699 -101 -162 -8 -359 -6 -393 5 -7 3 -13 13 -13 23 0 22 33 33 225 76
314 70 491 93 822 106 321 12 442 22 671 56 168 25 174 25 188 7 14 -18 15
-17 18 25 1 7 8 17 16 22 8 5 11 10 7 10 -5 0 3 14 17 31 14 17 26 37 26 45 0
8 4 14 9 14 5 0 13 10 17 23 4 12 10 24 13 27 12 9 59 98 71 134 6 19 18 37
26 40 8 3 13 10 9 15 -3 5 -1 12 5 16 6 4 8 11 5 16 -4 5 -1 9 4 9 6 0 11 6
11 14 0 8 5 16 11 18 5 2 11 11 13 21 1 10 10 27 19 38 9 10 17 24 17 30 0 5
5 15 10 22 49 57 60 74 60 90 0 9 4 17 8 17 10 0 42 65 42 83 0 7 9 19 20 27
11 8 20 19 20 25 0 6 11 27 25 48 14 20 23 37 19 37 -4 0 0 8 8 18 18 20 75
123 77 137 0 6 8 18 16 28 8 9 15 24 15 32 0 8 5 15 10 15 6 0 10 6 10 14 0 8
7 22 16 30 8 9 13 16 10 16 -3 0 3 9 15 21 12 12 30 41 40 65 11 24 24 46 29
49 6 3 10 15 10 25 0 10 6 25 13 32 18 18 41 60 43 78 1 8 5 22 9 32 5 12 -1
18 -27 24 -32 7 -597 12 -747 6z m-124 -908 c13 -20 7 -23 -124 -79 -195 -82
-383 -171 -723 -339 -390 -194 -595 -272 -887 -342 -124 -29 -130 -29 -143 -5
-9 17 6 28 150 106 311 169 496 243 1005 401 198 61 509 187 650 262 46 24 53
24 72 -4z m-2425 -1228 c16 -12 12 -22 -47 -120 -164 -273 -318 -482 -499
-678 -296 -321 -397 -440 -545 -648 -129 -181 -122 -174 -149 -155 l-23 16 23
28 c13 15 33 41 45 57 12 16 38 51 58 77 91 122 245 343 398 576 282 425 358
518 702 850 13 13 17 13 37 -3z m82 -42 c23 -9 21 -25 -23 -171 -102 -340
-175 -518 -361 -873 -153 -293 -232 -467 -315 -697 -27 -73 -53 -133 -59 -132
-47 3 -46 8 25 189 87 220 169 447 255 710 106 325 184 512 301 724 48 88 153
256 159 256 1 0 9 -3 18 -6z"/>
<path d="M1619 1051 c-122 -5 -171 -10 -183 -20 -24 -20 -63 -76 -45 -66 12 8
12 6 0 -11 -8 -10 -26 -31 -40 -46 -14 -16 -21 -28 -17 -28 4 0 -2 -9 -13 -21
-10 -11 -22 -36 -25 -54 -4 -18 -19 -45 -34 -61 -15 -15 -20 -24 -12 -19 12 6
11 4 -2 -11 -9 -10 -20 -31 -23 -46 -4 -16 -11 -25 -16 -22 -5 3 -9 -2 -9 -11
0 -9 -5 -13 -10 -10 -14 8 -52 -83 -45 -106 6 -18 20 -19 195 -19 104 0 200 4
213 9 23 9 36 31 43 68 1 7 16 29 33 49 16 21 28 41 25 46 -3 4 -1 8 5 8 5 0
12 14 16 31 4 17 13 33 21 36 8 3 14 13 14 23 0 10 7 23 15 30 8 7 13 16 10
20 -3 4 2 10 10 14 8 3 15 15 15 26 0 11 9 29 20 40 11 11 20 29 20 39 0 10 7
22 16 25 8 3 12 10 9 16 -3 5 -2 10 3 10 5 0 12 11 14 24 4 18 -1 27 -19 35
-13 6 -27 10 -31 9 -4 -1 -82 -4 -173 -7z"/>
<path d="M3600 1051 c0 -3 -67 -5 -150 -3 -148 3 -150 3 -175 -22 -16 -17 -23
-31 -18 -43 3 -10 2 -15 -2 -11 -8 8 -24 -14 -45 -61 -6 -13 -19 -36 -30 -51
-11 -16 -20 -35 -20 -44 0 -9 -9 -24 -20 -33 -11 -10 -20 -22 -20 -28 0 -6
-11 -26 -24 -45 -13 -19 -27 -46 -31 -60 -4 -14 -10 -27 -14 -30 -15 -13 -51
-71 -51 -83 0 -33 26 -38 206 -36 152 0 182 3 200 17 23 20 80 112 68 112 -4
0 2 9 14 20 12 11 25 33 29 47 3 15 15 36 25 47 10 11 18 28 18 38 0 10 6 21
14 24 8 3 20 20 27 37 7 18 22 46 34 62 18 26 35 58 39 75 1 3 8 16 15 28 7
13 10 26 7 29 -8 9 -96 21 -96 14z"/>
<path d="M4362 1041 c-7 -8 -24 -38 -37 -67 -26 -58 -65 -91 -65 -54 0 12 -4
19 -8 16 -4 -2 -8 4 -9 14 -2 28 -46 90 -68 96 -11 2 -98 3 -194 2 l-174 -3
-26 -49 c-14 -27 -34 -57 -43 -67 -16 -17 -23 -39 -19 -62 1 -5 -3 -6 -9 -2
-6 4 -13 -7 -16 -24 -4 -16 -15 -38 -25 -47 -11 -9 -19 -28 -19 -41 0 -12 -4
-23 -9 -23 -5 0 -18 -21 -30 -47 -11 -27 -35 -72 -51 -102 -44 -77 -36 -82
154 -79 157 1 193 9 202 45 3 12 12 27 20 34 8 6 14 19 14 28 1 23 43 72 55
63 12 -9 35 -48 35 -61 0 -17 59 -99 76 -105 25 -9 310 -7 336 3 33 12 125
167 193 326 14 33 29 62 33 65 12 8 62 110 62 125 0 8 -5 17 -11 21 -7 4 -88
7 -182 8 -134 1 -174 -2 -185 -13z"/>
<path d="M6105 1053 c-82 -2 -160 -5 -171 -8 -20 -4 -71 -88 -66 -107 1 -5 -2
-8 -7 -8 -5 0 -14 -15 -22 -32 -7 -18 -20 -40 -28 -49 -28 -29 -46 -53 -82
-109 -52 -83 -59 -98 -59 -124 0 -14 -7 -29 -15 -33 -8 -5 -17 -22 -21 -39 -8
-41 -3 -42 214 -44 200 -1 187 -5 236 80 30 52 72 137 80 163 3 10 10 15 16
12 5 -3 10 3 10 14 0 11 7 26 15 35 9 8 14 17 13 19 -5 6 36 76 42 72 10 -6
70 110 70 134 0 16 -6 21 -24 21 -13 0 -30 1 -38 3 -7 1 -80 1 -163 0z"/>
<path d="M560 1022 c-16 -16 -30 -32 -30 -35 0 -3 -11 -19 -25 -34 -54 -61
-65 -74 -65 -78 0 -3 -2 -5 -5 -5 -7 0 -45 -39 -45 -46 0 -3 -29 -39 -65 -79
-36 -40 -65 -76 -65 -80 0 -4 -11 -15 -24 -26 -13 -10 -29 -32 -36 -49 -7 -16
-19 -30 -26 -30 -8 0 -14 -10 -14 -24 0 -20 4 -24 20 -21 11 2 18 0 15 -5 -3
-6 60 -9 155 -8 l160 1 25 31 c14 17 30 37 36 44 14 17 133 16 147 -1 6 -7 9
-22 6 -33 -9 -33 31 -42 192 -43 108 -1 154 2 165 11 19 15 60 133 53 152 -5
13 27 116 64 211 11 28 26 70 33 93 23 80 35 77 -325 80 l-316 2 -30 -28z"/>
<path d="M1955 1020 c-8 -16 -16 -33 -16 -37 0 -5 -7 -15 -14 -23 -13 -15 -15
-19 -15 -41 0 -5 -5 -7 -12 -3 -6 4 -8 3 -5 -3 4 -6 -5 -23 -18 -39 -14 -16
-25 -34 -25 -40 0 -6 -7 -17 -15 -24 -8 -7 -15 -21 -15 -31 0 -11 -5 -19 -11
-19 -5 0 -7 -5 -4 -10 3 -6 -1 -13 -9 -16 -9 -3 -13 -10 -10 -15 3 -5 0 -9 -6
-9 -6 0 -15 -11 -20 -25 -5 -13 -21 -42 -35 -63 -14 -21 -27 -49 -30 -60 -2
-12 -6 -26 -9 -30 -12 -20 42 -29 194 -31 194 -3 214 1 230 40 7 16 16 29 20
29 4 0 15 17 23 39 9 21 22 41 30 44 16 6 61 -35 50 -46 -3 -4 -1 -7 6 -7 7 0
9 -4 6 -10 -3 -5 -1 -10 4 -10 6 0 11 -7 11 -15 0 -8 5 -15 10 -15 6 0 10 -7
10 -15 0 -9 11 -20 23 -24 32 -12 368 -14 386 -2 27 17 18 49 -26 97 -44 50
-54 70 -28 60 8 -3 15 -1 15 5 0 6 4 8 9 4 11 -6 101 78 101 95 0 6 7 18 15
27 8 8 13 19 9 24 -3 6 1 20 9 32 23 36 28 129 9 154 -34 42 -46 43 -446 43
l-385 0 -16 -30z"/>
<path d="M4842 1026 c-12 -15 -22 -31 -22 -36 0 -18 -68 -132 -82 -138 -5 -2
-8 -11 -8 -20 0 -9 -11 -27 -24 -41 -13 -15 -52 -80 -85 -145 -60 -116 -61
-119 -41 -133 17 -12 80 -13 388 -8 202 3 388 5 414 5 26 -1 61 6 77 15 17 8
34 15 37 14 12 -3 133 123 140 145 4 11 25 52 47 91 22 38 40 75 40 82 0 7 4
13 9 13 4 0 8 9 8 19 0 11 5 23 10 26 6 4 10 29 9 55 -2 27 -6 47 -10 44 -4
-2 -9 1 -11 8 -2 6 -13 13 -24 16 -10 3 -206 7 -434 9 l-415 5 -23 -26z"/>
<path d="M6528 1027 c-13 -13 -34 -42 -48 -65 -14 -23 -28 -42 -32 -42 -12 0
-92 -90 -103 -114 -15 -33 -36 -57 -46 -50 -5 3 -6 -1 -3 -9 3 -8 -2 -20 -11
-27 -8 -7 -15 -9 -15 -5 0 11 -35 -37 -44 -59 -3 -10 -9 -16 -12 -13 -12 12
-75 -58 -86 -95 -6 -21 -9 -41 -6 -44 10 -9 305 -5 331 5 14 5 27 7 30 4 3 -2
16 14 29 36 l23 41 73 0 c70 0 78 -4 73 -34 -1 -6 3 -19 9 -30 10 -19 22 -21
156 -24 95 -3 155 0 173 8 29 11 61 65 61 100 0 11 4 20 9 20 5 0 16 33 26 73
9 39 23 86 31 104 8 17 14 37 14 45 0 8 4 18 10 24 5 5 11 23 12 39 1 17 5 35
8 40 12 19 11 78 -2 87 -7 4 -153 8 -325 8 l-312 0 -23 -23z"/>
</g>
</svg>
