<?xml version="1.0" standalone="no"?>
<!DOCTYPE svg PUBLIC "-//W3C//DTD SVG 20010904//EN"
 "http://www.w3.org/TR/2001/REC-SVG-20010904/DTD/svg10.dtd">
<svg version="1.0" xmlns="http://www.w3.org/2000/svg"
 width="414.000000pt" height="150.000000pt" viewBox="0 0 414.000000 150.000000"
 preserveAspectRatio="xMidYMid meet">
<metadata>
Created by potrace 1.16, written by Peter Selinger 2001-2019
</metadata>
<g transform="translate(0.000000,150.000000) scale(0.100000,-0.100000)"
fill="#000000" stroke="none">
<path d="M0 750 l0 -750 2070 0 2070 0 0 750 0 750 -2070 0 -2070 0 0 -750z
m765 675 c33 -17 55 -50 55 -87 0 -43 -41 -108 -88 -140 -62 -43 -152 -51
-193 -19 -92 72 27 255 169 260 13 1 39 -6 57 -14z m200 -185 c52 -58 -42
-180 -140 -180 -98 0 -95 109 5 178 43 29 110 30 135 2z m153 -132 c23 -23 13
-59 -27 -100 -34 -34 -45 -39 -77 -36 -50 4 -63 27 -41 73 28 58 113 95 145
63z m2282 -55 c0 -26 -166 -575 -183 -606 -32 -58 -93 -89 -173 -90 -50 -1
-70 4 -92 20 -35 26 -49 65 -36 101 8 23 15 27 56 30 46 3 47 3 50 -30 3 -30
6 -33 38 -36 19 -2 43 3 52 10 11 8 42 100 83 243 37 127 75 260 86 298 l20
67 49 0 c28 0 50 -3 50 -7z m574 -20 c-4 -16 -11 -38 -15 -51 -15 -38 -11 -52
14 -52 33 0 36 -6 24 -46 -9 -29 -15 -34 -42 -34 l-33 0 -27 -99 c-29 -105
-28 -131 5 -131 23 0 24 -5 9 -50 -12 -32 -12 -32 -71 -28 -37 3 -65 11 -75
21 -16 16 -16 21 0 84 9 38 25 98 36 136 l20 67 -25 0 c-25 0 -27 7 -15 50 5
17 16 27 35 30 25 4 31 12 43 55 8 28 16 56 18 63 3 7 23 12 55 12 50 0 50 0
44 -27z m-3459 -68 c89 -88 -104 -270 -239 -225 -97 32 -65 164 55 224 72 36
150 36 184 1z m1214 -29 c24 -13 51 -52 51 -76 0 -5 -18 -15 -40 -21 -38 -11
-41 -11 -64 14 -28 30 -44 33 -70 14 -30 -22 -15 -48 49 -86 76 -46 91 -75 69
-130 -22 -55 -62 -87 -126 -101 -86 -19 -152 14 -172 86 -6 19 -1 23 38 33 57
14 53 15 60 -14 12 -46 106 -42 106 4 0 19 -43 61 -62 61 -20 0 -70 43 -79 68
-19 49 28 126 91 151 37 15 117 13 149 -3z m406 -11 c31 -30 31 -57 1 -165
-31 -113 -48 -149 -83 -183 -42 -39 -92 -45 -139 -18 -20 12 -38 21 -39 19 -1
-2 -15 -49 -30 -105 l-28 -103 -52 0 -52 0 58 208 c33 114 69 242 81 285 l21
77 49 0 c45 0 49 -2 43 -20 -6 -18 -3 -18 37 5 56 32 102 32 133 0z m569 11
c40 -17 62 -62 49 -103 -8 -25 -15 -28 -56 -31 -46 -3 -47 -3 -47 27 0 33 -24
47 -66 37 -32 -8 -47 -35 -74 -135 -23 -81 -23 -84 -5 -97 10 -8 26 -14 36
-14 22 0 69 38 69 56 0 10 14 14 55 14 l55 0 -19 -39 c-40 -76 -120 -118 -210
-108 -62 7 -95 35 -99 83 -5 60 44 217 82 259 51 59 156 82 230 51z m408 -25
c32 -36 34 -54 12 -133 l-16 -57 -111 -3 -111 -3 -8 -30 c-12 -47 -2 -65 38
-65 24 0 42 8 58 25 18 20 33 25 70 25 25 0 46 -3 46 -7 0 -19 -49 -74 -82
-93 -75 -42 -189 -35 -223 13 -22 31 -19 79 11 176 33 107 54 137 118 168 42
20 62 23 111 19 51 -4 64 -9 87 -35z m600 0 c32 -36 34 -54 12 -133 l-16 -57
-111 -3 -111 -3 -8 -30 c-12 -47 -2 -65 38 -65 24 0 42 8 58 25 18 20 33 25
70 25 25 0 46 -3 46 -6 0 -4 -9 -21 -20 -40 -42 -68 -165 -103 -245 -70 -62
26 -68 67 -31 193 32 113 52 142 116 176 48 25 62 28 115 24 51 -5 64 -10 87
-36z m-1347 2 c-3 -16 -27 -102 -53 -193 l-48 -165 -53 -3 c-47 -3 -52 -1 -47
15 3 10 19 68 36 128 17 61 40 140 51 178 l20 67 50 0 c50 0 51 0 44 -27z
m-1614 -14 c54 -54 -45 -168 -148 -169 -34 0 -46 5 -58 24 -14 21 -14 28 -2
59 37 88 156 138 208 86z m217 -71 c2 -15 -2 -36 -8 -48 -27 -51 -129 -80
-149 -42 -25 47 52 125 119 120 30 -3 35 -7 38 -30z m-90 -235 c13 -24 0 -55
-37 -85 -75 -64 -156 -32 -105 41 38 53 124 80 142 44z m-265 -12 c33 -13 40
-35 23 -76 -40 -94 -216 -141 -216 -58 0 52 48 104 119 129 44 16 44 16 74 5z
m-263 -31 c53 -28 45 -92 -18 -152 -49 -47 -93 -69 -156 -75 -43 -4 -56 -1
-80 18 -24 19 -27 27 -23 56 9 52 50 98 118 132 64 32 124 40 159 21z"/>
<path d="M1972 863 c-13 -11 -32 -56 -51 -123 -28 -97 -29 -106 -14 -117 47
-36 83 -2 118 110 32 103 31 141 -6 145 -14 2 -35 -5 -47 -15z"/>
</g>
</svg>
